<svg width="1200" height="1200" version="1.1" viewBox="0 0 300 300" xmlns="http://www.w3.org/2000/svg">
 <path d="m130.32 287.87c-3.1308-0.42025-6.4119-1.5226-8.7424-2.9373-1.9483-1.1826-3.7482-2.3704-4.5725-3.0174-3.06-2.4019-4.878-3.9253-5.8047-4.864-0.54273-0.54979-1.362-1.217-1.8206-1.4826-0.45857-0.26561-0.92927-0.598-1.046-0.73864-0.37048-0.44642-3.8422-2.7485-5.3586-3.5532-0.44234-0.23476-1.0914-0.7474-1.4423-1.1392-0.39953-0.44607-0.86721-0.76144-1.2511-0.84363-0.33718-0.0722-0.7064-0.20631-0.82052-0.29803-0.13055-0.10493-0.25044-0.0973-0.32331 0.0206-0.0637 0.10307-0.39656 0.18741-0.73969 0.18741-0.34312 0-0.84104 0.11047-1.1065 0.24547-3.7417 1.9033-14.268 2.7479-18.642 1.4959-3.9645-1.1347-7.7223-4.0942-10.182-8.0192-1.0819-1.7263-1.9216-3.5015-3.202-6.769-0.52001-1.327-1.0106-2.5736-1.0903-2.7702-0.07965-0.1966-0.23364-0.67915-0.3422-1.0723-0.46312-1.6774-1.4768-5.5692-1.5361-5.8979-0.15395-0.85226-0.83015-4.9602-1.0577-6.4258-0.3291-2.1194-0.56576-2.4174-2.2472-2.8294-2.3365-0.57247-2.5591-0.631-3.4678-0.91196-2.8618-0.88486-4.6234-1.337-6.7022-1.7202-0.54064-0.0996-1.3047-0.26722-1.6979-0.37238-0.76295-0.20406-1.2421-0.3218-3.217-0.79041-3.9873-0.94613-7.132-2.6337-9.404-5.0465-1.3673-1.4521-2.0361-2.6779-2.9329-5.3758-0.67319-2.0252-0.67326-2.0257-0.56877-4.2894 0.05748-1.2452 0.26388-2.9878 0.45868-3.8724 0.1948-0.88468 0.47822-2.2519 0.62983-3.0383 0.15161-0.78639 0.63255-3.159 1.0688-5.2724 1.3054-6.3247 1.5387-10.235 0.76762-12.868-1.3488-4.6052-1.8713-6.185-2.4657-7.4552-0.73754-1.576-0.96433-2.1602-1.7543-4.5193-0.63784-1.9047-0.85654-2.8979-1.0715-4.8661-0.09368-0.85784-0.25458-1.7171-0.35755-1.9095s-0.18722-0.59996-0.18722-0.90569c0-0.30574-0.11571-1.055-0.25713-1.665s-0.38978-1.9133-0.5519-2.8963c-0.63167-3.8299-0.66136-3.8943-2.7609-5.9906-5.5502-5.5415-10.893-11.534-11.868-13.312-0.16178-0.2949-0.36423-0.65682-0.44988-0.80427-0.46858-0.80659-0.90886-2.1464-1.3656-4.1556-0.66946-2.9451 0.04776-6.2473 1.9609-9.0286 0.35051-0.50955 0.63728-0.97778 0.63728-1.0405 0-0.0628 0.38457-0.56734 0.8546-1.1213 0.47002-0.55399 1.0759-1.307 1.3463-1.6732 0.27045-0.36629 2.4997-2.6719 4.9539-5.1236 3.5275-3.5238 4.4622-4.5543 4.4622-4.9191 0-0.46378 0.12913-0.62044 1.2152-1.4743 0.78031-0.61347 1.4646-1.9904 1.47-2.9579 0.0024-0.42104 0.08528-1.0872 0.1843-1.4804s0.25039-1.3583 0.33637-2.1447c0.38715-3.5409 0.80573-5.5265 1.2874-6.1068 0.09937-0.11974 0.29036-0.60427 0.4244-1.0767 0.6398-2.255 2.0812-6.9238 2.5827-8.3654 0.78232-2.2489 0.86858-2.6058 1.1662-4.8256 0.145-1.0813 0.35956-2.4485 0.4768-3.0383 0.11724-0.58979 0.20773-1.756 0.20109-2.5915-0.0066-0.83554-0.04645-4.4145-0.08846-7.9532l-0.07637-6.4341-0.67251-2.4128c-0.36988-1.327-0.73572-2.8149-0.81298-3.3064-0.46384-2.9507-0.73628-4.5734-0.90019-5.3617-0.30972-1.4895-0.67083-4.194-0.79282-5.9377-0.17106-2.445 0.64809-5.4183 2.1331-7.7428 1.6699-2.6137 5.7881-4.8375 9.9028-5.3475 0.74496-0.09233 1.9577-0.25508 2.6949-0.36167 0.73724-0.10659 1.9034-0.27437 2.5915-0.37285s1.6532-0.25311 2.1447-0.34361c1.9619-0.36127 3.3482-0.51895 6.2553-0.71149 4.3389-0.28737 6.2484-0.6471 7.9472-1.4972 1.0804-0.54065 1.65-1.0869 3.5679-3.4214 0.57321-0.69776 3.2309-2.9489 3.4814-2.9489 0.04188 0 0.66588-0.34744 1.3867-0.77208 1.9329-1.1387 3.5931-1.8393 5.5999-2.3631 3.016-0.78712 8.1308-0.45151 13.436 0.88166 3.5484 0.89162 4.3952 0.96147 6.9693 0.57492 3.3966-0.51008 8.2498-3.2388 14.497-8.1513 1.9063-1.4989 6.3131-4.6468 6.5052-4.6468 0.0831 0 0.76356-0.37176 1.5121-0.82614 0.74851-0.45438 1.8932-1.0613 2.5438-1.3488s1.3437-0.59723 1.5403-0.68843c0.1966-0.09119 1.118-0.41426 2.0475-0.71791 4.611-1.5063 9.0831-1.305 12.965 0.58356 1.8312 0.89083 4.3949 2.538 5.818 3.7379 0.44978 0.37926 0.90068 0.68957 1.002 0.68957s0.32977 0.16085 0.50769 0.35745c0.55875 0.61742 1.1926 0.44322 3.1628-0.86926 3.0367-2.0229 5.1-3.2471 6.2729-3.7218 0.60997-0.24686 1.1895-0.51138 1.2878-0.58781 1.3246-1.0299 5.9322-1.3843 9.1423-0.70305 0.96792 0.2054 2.0816 0.43677 2.4747 0.51416 2.0286 0.39926 7.1772 2.5927 7.7742 3.312 0.13447 0.16203 0.53344 0.44201 0.88659 0.62218 0.35317 0.18017 1.1336 0.69706 1.7344 1.1486 0.60074 0.45159 1.1528 0.82107 1.2269 0.82107s0.46516 0.28854 0.86909 0.6412 1.3778 1.1231 2.1642 1.7121 1.6711 1.2869 1.966 1.5508c2.2463 2.0104 8.1684 5.5682 9.2685 5.5682 0.19703 0 0.9267 0.19086 1.6215 0.42414 3.1212 1.048 5.9321 0.99542 10.468-0.19563 7.2638-1.9075 10.933-1.689 16.621 0.98988 3.0684 1.4451 5.565 3.5291 7.2118 6.0199 2.1091 3.19 2.1352 3.1987 10.84 3.5819 6.3405 0.27912 7.7357 0.39198 10.813 0.87471 0.98297 0.15421 2.1894 0.32901 2.6809 0.38844 2.3765 0.28739 5.9689 2.0285 8.2407 3.9939 1.6628 1.4386 2.7203 3.0218 3.2882 4.9228 0.38069 1.2745 0.33192 6.7356-0.0806 9.0256-0.16821 0.93383-0.37517 2.3413-0.45991 3.1277-0.19425 1.8029-0.95099 5.3154-1.3476 6.2553-1.09 2.583-1.3307 5.1433-1.3268 14.114 4e-3 8.4168 0.31046 11.221 1.5316 14.003 0.51304 1.1685 0.58757 1.3595 0.86616 2.2198 0.15085 0.46574 0.35205 0.98851 0.44717 1.1617 0.20484 0.37307 0.45083 0.96212 1.4003 3.3532 0.85936 2.1641 1.2511 3.6874 1.4816 5.7616 0.0957 0.86136 0.38104 2.1693 0.634 2.9066 0.25295 0.73723 0.64314 2.0778 0.86708 2.979 0.67322 2.7093 1.9514 4.3682 8.2136 10.66 1.6815 1.6894 3.3378 3.3924 3.6808 3.7845 0.90894 1.039 1.964 2.3879 1.964 2.5109 0 0.0586 0.19514 0.36257 0.43367 0.67548 3.4256 4.4939 3.836 11.307 0.92677 15.384-0.45335 0.63532-0.82427 1.2114-0.82427 1.2802s-0.29145 0.45649-0.64766 0.86159c-0.35621 0.40511-0.93931 1.0865-1.2958 1.5143-1.1002 1.3202-7.3191 7.8264-8.7981 9.2045-1.5726 1.4653-3.0747 3.4174-3.4572 4.493-0.1401 0.39399-0.34401 1.8423-0.45308 3.2185-0.1091 1.3762-0.39016 3.5477-0.62459 4.8256s-0.51582 2.9844-0.62528 3.7923c-0.32421 2.3926-1.1881 4.9842-2.5486 7.646-1.7854 3.4929-2.6406 5.1256-3.0476 5.8184-0.5877 1.0003-0.75418 2.7908-0.37627 4.0465 0.13671 0.45426 0.24978 1.1952 0.25128 1.6465 3e-3 1.0073 0.9153 6.0972 1.508 8.4163 0.13815 0.54064 0.34387 1.4655 0.45712 2.0553 0.37943 1.9759 0.86078 4.1098 1.5464 6.8558 1.6878 6.7591-1.7252 13.228-8.3645 15.854-0.62534 0.24734-1.2978 0.524-1.4944 0.61483-0.38981 0.1801-2.0326 0.77173-3.3064 1.1907-1.4095 0.46365-2.5424 0.72585-4.4681 1.0341-1.0321 0.16521-2.2679 0.4156-2.7461 0.55644-0.47821 0.14081-1.0226 0.25604-1.2097 0.25604-0.31196 0-2.2055 0.46377-3.7294 0.9134-1.3442 0.39664-4.3133 2.0101-4.5489 2.472-0.25972 0.5092-0.61462 1.9574-0.8128 3.3168-0.0717 0.4915-0.34991 1.6174-0.61832 2.5021-0.26842 0.88469-0.59379 2.2117-0.72306 2.949-0.79352 4.5256-1.6131 7.4486-2.7812 9.9192-0.27886 0.58979-0.75321 1.6663-1.0541 2.3922-1.232 2.9722-4.4077 6.9568-7.0659 8.866-1.1976 0.86013-3.1648 1.7857-4.7655 2.2423-4.267 1.2171-16.738 0.0626-20.56-1.9032-1.0749-0.55288-1.4938-0.35858-5.0578 2.3462-0.1966 0.1492-0.95985 0.72709-1.6961 1.2842-0.73625 0.5571-1.499 1.1623-1.6949 1.3448-0.19594 0.18255-0.71951 0.54066-1.1635 0.79581-0.44397 0.25514-1.33 0.96672-1.9689 1.5813-2.5234 2.4271-4.883 4.3822-5.9465 4.9271-0.21898 0.11222-0.67966 0.46678-1.0237 0.78791-0.34404 0.32112-0.83625 0.69364-1.0938 0.82779-0.25752 0.13417-0.69987 0.42545-0.98298 0.64733-2.1101 1.6536-5.6108 3.2165-8.736 3.9002-2.0371 0.44568-7.9062 0.45725-9.5617 0.0188-2.1457-0.56817-3.1239-0.89424-3.7532-1.2511-0.34405-0.19507-1.1081-0.59497-1.6979-0.88865-0.58978-0.29366-1.1126-0.58507-1.1617-0.64755-0.0492-0.0625-0.3167-0.25841-0.59457-0.43536-0.68871-0.4386-1.3455-0.99208-3.6054-3.0383-0.75151-0.68042-1.3273-0.79757-1.6941-0.34465-0.16132 0.19922-0.545 0.49237-0.85261 0.65145-0.30762 0.15908-0.66472 0.43485-0.79356 0.61282-0.44605 0.61621-3.102 2.467-4.9704 3.4635-3.6926 1.9696-7.7848 2.7298-11.796 2.1914zm5.8979-6.5942c2.6689-0.78396 3.3714-1.0239 3.6785-1.2562 0.18852-0.14265 0.46917-0.26192 0.62366-0.26505 0.41004-8e-3 3.0335-1.8793 3.5368-2.5224 0.36575-0.46734 0.39327-0.58634 0.18301-0.79135-0.63537-0.61944-10.497-5.4913-11.954-5.9055-0.24575-0.0699-0.64787-0.26676-0.89362-0.43756-0.24575-0.17081-0.64788-0.37308-0.89362-0.44948-0.24575-0.0764-0.74681-0.32822-1.1135-0.55962-0.36666-0.23138-0.71353-0.4207-0.77082-0.4207-0.0573 0-0.56155-0.21134-1.1206-0.46963s-1.1773-0.53017-1.3739-0.60414c-1.3284-0.49987-2.0122-0.81911-2.3234-1.0846-0.3729-0.31822-1.9132-1.0586-2.2024-1.0586-0.0916 0-0.26413-0.11746-0.38327-0.26101-0.11914-0.14357-1.074-0.76045-2.1219-1.3709-1.0479-0.61041-2.4682-1.4872-3.1563-1.9484-0.68809-0.46121-1.6934-1.1254-2.234-1.4759-0.54064-0.35051-1.3038-0.92455-1.6959-1.2757-0.39211-0.35112-0.77145-0.63838-0.84297-0.63838-0.12154 0-1.0391-0.7701-2.7403-2.3-0.39693-0.35695-1.0332-0.89028-1.414-1.1852-0.94691-0.73338-2.2403-1.7989-2.7793-2.2897-0.24574-0.22374-1.2511-1.124-2.234-2.0006s-2.1612-1.9588-2.6183-2.405c-0.45711-0.44613-0.93967-0.89375-1.0724-0.9947-1.4513-1.1043-1.7522-1.172-2.8108-0.63192-1.7802 0.90817-9.5519 1.2222-13.426 0.54248-2.4923-0.43723-3.9153-0.77929-5.7192-1.3747-1.9889-0.65654-2.0002-0.66083-3.6638-1.3995-5.419-2.4061-5.4599-2.3976-4.5806 0.95111 0.32855 1.2512 0.66221 2.5564 0.74147 2.9004 0.13892 0.60298 1.6217 4.8981 1.9436 5.6298 0.72563 1.6496 2.0909 4.2885 2.4846 4.8023 0.26578 0.34689 0.6843 0.97579 0.93004 1.3975 0.84494 1.4501 2.8233 3.2332 4.2054 3.7904 0.68514 0.2762 1.6076 0.65054 2.05 0.83189 3.1732 1.3009 6.7015 1.134 13.315-0.62986 0.98298-0.26217 2.107-0.55601 2.4978-0.65295 0.3908-0.0969 1.1146-0.4054 1.6085-0.68544 0.49388-0.28005 1.1795-0.59387 1.5235-0.69738 0.34404-0.10352 1.0622-0.34498 1.5959-0.53659 1.4972-0.53751 2.4568 0.0979 3.89 2.5756 0.34377 0.59433 0.88595 1.2594 1.2048 1.4779 0.31889 0.21851 0.89427 0.67928 1.2786 1.0239 0.38435 0.34465 1.1094 0.86 1.6113 1.1452 0.50188 0.28523 1.0246 0.625 1.1617 0.75504s0.63582 0.51793 1.1084 0.86197c0.47254 0.34404 1.317 0.99251 1.8766 1.441 0.5596 0.44853 1.2719 0.97129 1.5828 1.1617 0.55225 0.33816 4.3554 3.2056 5.2432 3.9532 3.0656 2.5815 5.5362 4.1651 7.0912 4.5452 0.47413 0.11589 1.0631 0.30745 1.3089 0.42573 0.38786 0.18666 1.4598 0.43277 3.0383 0.69753 0.79009 0.13253 3.9956-0.0876 4.8256-0.33142zm31.532 0.27174c0.52466-0.15988 2.3472-0.60101 3.6765-0.8899 0.89113-0.19364 3.2668-1.502 5.183-2.8545 1.2718-0.8977 5.1256-4.075 5.5176-4.5491 0.13492-0.16316 0.3368-0.29665 0.44865-0.29665 0.11183 0 0.40357-0.18095 0.64832-0.40212 0.72428-0.65453 1.7481-1.3851 1.9411-1.3851 0.0987 0 0.93755-0.63009 1.864-1.4002 0.92653-0.77011 1.957-1.5906 2.2899-1.8233 0.33291-0.23268 1.0055-0.74866 1.4946-1.1466 0.48913-0.39795 0.99294-0.80395 1.1196-0.90225 0.78646-0.61044 3.0756-2.7542 3.3398-3.1277 0.56852-0.80378 2.3641-2.0022 2.7286-1.8213 0.17753 0.0881 0.64186 0.31275 1.0319 0.49925 0.39 0.18648 1.3286 0.70948 2.0856 1.1622 1.8481 1.1051 3.7667 1.6874 8.1074 2.4606 1.8436 0.32835 6.1123 0.44658 7.8639 0.21779 2.196-0.28685 4.0699-1.1742 6.1165-2.8962 1.4875-1.2516 5.2325-7.0961 5.2325-8.1658 0-0.0914 0.15431-0.55897 0.3429-1.039 0.1886-0.48004 0.59773-1.7172 0.90918-2.7494 0.31146-1.0321 0.6367-2.0777 0.72277-2.3234 0.0861-0.24575 0.31463-1.05 0.50792-1.7872 0.19329-0.73724 0.47683-1.7828 0.63009-2.3234 0.63478-2.2392 0.35082-2.4056-1.8375-1.0764-3.4049 2.0681-8.0833 3.6939-11.82 4.1078-5.2841 0.58524-10.565 0.60954-14.328 0.066-0.56341-0.0814-0.71454-0.023-1.0721 0.41464-1.2492 1.5285-5.2387 5.3091-7.233 6.8541-0.57098 0.44234-1.3272 1.0858-1.6806 1.4298-0.35337 0.34405-0.91848 0.77788-1.2558 0.96407-0.33733 0.18622-0.77419 0.47355-0.97078 0.63855-0.1966 0.16502-0.79979 0.5714-1.3404 0.90311-0.89263 0.54768-2.2177 1.5529-3.1167 2.3645-0.19056 0.17203-0.42204 0.31278-0.51442 0.31278-0.0924 0-1.0007 0.52276-2.0186 1.1617-1.0178 0.63894-1.892 1.1617-1.9426 1.1617s-0.47856 0.2777-0.95098 0.61709c-0.80508 0.57841-3.9491 2.2988-5.7547 3.1489-2.183 1.0278-3.3627 1.5617-3.9319 1.7793-0.34404 0.13154-0.81734 0.38533-1.0518 0.56396-0.23441 0.17866-0.53364 0.32484-0.6649 0.32484-0.1313 0-0.66332 0.18762-1.1823 0.41692-0.51897 0.22931-1.3055 0.52121-1.7478 0.64868-0.44235 0.12748-1.0858 0.34743-1.4298 0.48879-0.34404 0.14136-0.8266 0.33824-1.0723 0.43751-0.24574 0.0993-0.82887 0.37529-1.2958 0.61343-0.46697 0.23815-0.93441 0.43298-1.0387 0.43298-0.10435 0-0.60698 0.19364-1.117 0.43031-2.3351 1.0837-3.6747 1.6814-4.477 1.9975-1.0174 0.40092-1.4547 0.94433-1.2896 1.6024 0.27202 1.0838 3.0818 3.3306 4.8393 3.8697 1.9698 0.60427 2.6995 0.74997 4.2894 0.8565 0.98298 0.0659 1.9826 0.13324 2.2214 0.14974 0.23878 0.0164 0.68112-0.0453 0.98298-0.13728zm-16.735-9.7594c1.7196-0.3953 2.314-0.59664 3.5218-1.193 0.5898-0.29116 2.0777-0.96958 3.3064-1.5076s2.7166-1.2064 3.3064-1.4853c1.642-0.7765 2.5928-1.1922 3.6114-1.5791 0.5118-0.19437 1.6138-0.7646 2.4488-1.2672 0.83502-0.50256 1.7334-0.91373 1.9965-0.91373 0.42951 0 3.9667-1.6543 4.1859-1.9577 0.0492-0.068 0.61213-0.38647 1.2511-0.70766 1.4003-0.70394 1.725-0.88785 2.4165-1.3689 0.29285-0.20373 0.85417-0.51769 1.2474-0.69772 0.3932-0.18003 1.0449-0.59644 1.4482-0.92537 0.40331-0.3289 0.78393-0.59802 0.84576-0.59802 0.37643 0 6.1419-3.85 7.1595-4.7809 0.34923-0.31948 0.67666-0.58086 0.72766-0.58086s0.8775-0.62448 1.8367-1.3877c0.95918-0.76324 2.0326-1.6019 2.3854-1.8638 0.63052-0.46793 1.1449-0.93001 3.3005-2.965 2.4332-2.2971 4.3063-4.1123 4.7545-4.6075 0.26132-0.28875 0.78409-0.81019 1.1617-1.1588 0.37762-0.34857 1.3702-1.391 2.2057-2.3165 0.83554-0.9255 1.7782-1.9396 2.0947-2.2535 0.68063-0.67497 1.7153-1.8666 2.4628-2.8366 0.29489-0.38264 1.1435-1.4244 1.8858-2.315 0.74226-0.89058 2.0114-2.5039 2.8203-3.5852 0.80891-1.0813 1.6492-2.1982 1.8675-2.482 0.2182-0.28379 0.4276-0.6055 0.46532-0.71489 0.0377-0.10939 0.32213-0.52057 0.63201-0.91377 0.30985-0.39319 0.69876-0.91596 0.8642-1.1617 0.16545-0.24574 0.54318-0.76851 0.83938-1.1617 0.29619-0.39319 0.5949-0.83554 0.66378-0.98298 0.0689-0.14745 0.43219-0.67753 0.80737-1.178 0.37518-0.50041 0.68214-0.97701 0.68214-1.0591 0-0.0821 0.67369-1.1605 1.4971-2.3965 0.8234-1.236 1.6396-2.5288 1.8137-2.8728s0.50577-0.8744 0.73695-1.1786c0.23118-0.30417 0.42033-0.6345 0.42033-0.73407 0-0.0996 0.47013-0.89625 1.0448-1.7704 0.57459-0.87414 1.4293-2.3129 1.8994-3.1973 0.47002-0.88438 1.1258-2.032 1.4574-2.5503 0.33154-0.51826 0.60278-1.01 0.60278-1.0928s0.31215-0.71837 0.69365-1.4124c0.38151-0.69405 0.91929-1.8513 1.1951-2.5716 0.27579-0.72031 0.5561-1.3901 0.62292-1.4884 0.0669-0.0983 0.34576-0.86234 0.61985-1.6979 0.27409-0.83553 0.68028-1.7604 0.90265-2.0553 0.59419-0.78803 1.9407-3.5352 2.5665-5.2361 0.30006-0.81555 0.73624-1.9013 0.96929-2.4128 0.90518-1.9865 1.545-3.4989 1.545-3.652 0-0.088 0.19985-0.57426 0.4441-1.0806 0.24426-0.50631 0.98132-2.5521 1.6379-4.5462 0.6566-1.9941 1.2925-3.867 1.4131-4.1618 0.2032-0.49692 1.2431-3.8338 1.4481-4.6468 0.0496-0.1966 0.48973-1.6443 0.97812-3.217 0.4884-1.5728 0.96152-3.1411 1.0514-3.4851 0.0899-0.34405 0.48773-1.6711 0.88414-2.949 1.668-5.3768 2.5094-8.5088 2.713-10.098 0.0944-0.73723 0.24337-1.7426 0.33098-2.234 0.4434-2.4876 0.57045-3.1847 0.89568-4.9149 0.19402-1.0321 0.35366-2.1342 0.35477-2.449 2e-3 -0.31485 0.0734-0.75718 0.16078-0.98298 0.0873-0.2258 0.2577-1.0137 0.37858-1.751 0.12091-0.73724 0.28678-1.6621 0.36863-2.0553 0.29214-1.4037 0.73811-3.768 0.87651-4.6468 0.0774-0.49149 0.26698-1.6577 0.42127-2.5915 0.15428-0.93383 0.40007-2.4217 0.5462-3.3064 0.27592-1.6703 0.66798-4.6705 0.99265-7.5958 0.20185-1.8185 0.46009-3.8456 0.72859-5.7192 0.0916-0.63894 0.24703-2.3279 0.34547-3.7532 0.0984-1.4253 0.26128-3.637 0.36189-4.9149 0.17571-2.2318 0.30524-4.4229 0.79238-13.404 0.23869-4.4005 0.23193-12.685-0.013-15.906-0.18614-2.4488-0.34503-2.5203-2.7929-1.2574-0.86413 0.44581-1.7097 0.81056-1.8791 0.81056s-0.74435 0.1595-1.2777 0.35444c-2.0505 0.74947-5.8557 1.7731-6.6316 1.7839-1.1775 0.01641-1.1189-0.5253-1.0856 10.032 0.0166 5.2494-0.0532 11.153-0.15504 13.119-0.28505 5.5041-0.50016 9.0266-0.61122 10.009-0.0556 0.49149-0.22471 2.4619-0.37584 4.3787-0.27195 3.4495-0.63826 7.5337-0.98581 10.992-0.20499 2.0396-1.4756 11.483-1.8877 14.03-0.29435 1.8193-0.44121 2.6675-0.85094 4.9149-0.14337 0.78639-0.35387 2.033-0.46781 2.7702-0.29187 1.8888-0.29024 1.8805-0.71149 3.6638-0.70891 3.0011-0.86219 3.7509-1.0776 5.2724-0.11834 0.83554-0.33373 1.8811-0.47866 2.3234-0.5706 1.7416-1.0996 3.7225-1.3127 4.9149-0.2192 1.2272-0.57419 2.6913-1.17 4.8256-0.31754 1.1376-0.47455 1.7763-0.7907 3.217-0.10784 0.49149-0.27325 1.0333-0.36758 1.204-0.0943 0.17069-0.1715 0.4562-0.1715 0.63447s-0.0701 0.40053-0.15576 0.49392c-0.14525 0.15834-0.40731 0.99784-0.91777 2.94-0.11626 0.44235-0.32286 1.0456-0.45914 1.3404-0.39137 0.84694-0.96538 2.563-1.3451 4.0213-0.19197 0.73724-0.43573 1.5415-0.5417 1.7872-0.24083 0.55856-0.58546 1.3822-0.82257 1.966-0.0998 0.24576-0.31522 0.92937-0.47869 1.5192-0.16346 0.58979-0.48925 1.5147-0.72399 2.0553-0.23473 0.54064-0.48443 1.1438-0.55488 1.3404-0.73644 2.055-2.5498 6.3034-2.8791 6.7452-0.0923 0.1238-0.55626 1.0696-1.0311 2.1017-0.47481 1.0321-1.0456 2.1983-1.2683 2.5915-0.22275 0.39319-0.66788 1.3583-0.98917 2.1447-0.32131 0.78638-0.78589 1.7515-1.0324 2.1447-0.24653 0.39319-0.80068 1.3985-1.2314 2.234-0.43075 0.83553-1.2599 2.3234-1.8425 3.3064-0.58264 0.98299-1.2094 2.0687-1.3929 2.4128-0.71737 1.3453-1.9079 3.3095-2.0411 3.3676-0.0772 0.0336-0.29949 0.37323-0.49407 0.75461-0.19456 0.3814-0.58373 0.95707-0.86479 1.2793-0.28106 0.3222-0.67413 0.90752-0.8735 1.3007-0.19936 0.3932-0.5319 0.8681-0.73895 1.0554-0.20705 0.18725-0.37646 0.4175-0.37646 0.51163 0 0.0942-0.20595 0.42351-0.45768 0.7319-0.25172 0.30837-0.95544 1.2307-1.5638 2.0496-1.7444 2.348-3.1419 4.0813-4.3232 5.3623-0.39319 0.42639-0.78557 0.90035-0.87196 1.0533-0.5559 0.98408-11.039 10.951-11.518 10.951-0.0735 0-0.49274 0.32392-0.93151 0.71982-0.43879 0.39592-1.0342 0.84823-1.3233 1.0052-0.28901 0.15692-0.65093 0.42932-0.80425 0.60532-0.15333 0.17601-0.84177 0.68677-1.5299 1.135-0.68808 0.44824-1.4521 0.96691-1.6979 1.1526-0.24575 0.1857-0.88915 0.56274-1.4298 0.83786-0.54064 0.27513-1.2243 0.67483-1.5192 0.88822-0.2949 0.2134-1.4611 0.87361-2.5915 1.4671-2.817 1.479-3.0517 1.5973-3.6638 1.8462-0.29489 0.1199-0.81766 0.37214-1.1617 0.56053-1.3369 0.73207-3.2978 1.5056-4.9149 1.9387-1.1498 0.308-3.4545 0.87898-4.6468 1.1512-1.3652 0.31175-1.5379 0.3547-2.8596 0.71165-4.378 1.1823-15.265 0.99251-20.375-0.35515-0.98298-0.25929-2.0687-0.5401-2.4128-0.62403-2.0399-0.49766-4.2732-1.1575-5.0936-1.505-0.29489-0.1249-0.89808-0.37055-1.3404-0.54592-0.44234-0.17536-1.2064-0.48697-1.6979-0.69249-1.2636-0.52834-7.2497-3.5556-7.8773-3.9837-2.2287-1.52-3.5921-2.3825-3.7653-2.3819-0.11236 0-0.24973-0.11772-0.30527-0.26246-0.0555-0.14473-0.37338-0.40611-0.70631-0.58085-1.3688-0.7184-5.3838-3.8489-7.6455-5.9611-0.51827-0.48404-1.0043-0.88005-1.0802-0.88005-0.45182 0-8.7579-8.7576-10.255-10.813-0.28648-0.3932-0.9061-1.1323-1.3769-1.6425-0.47083-0.51019-0.8576-0.99275-0.85949-1.0724-2e-3 -0.0796-0.28806-0.46645-0.63594-0.85964s-1.1707-1.4704-1.8285-2.3937c-0.65779-0.92336-1.4634-2.0493-1.7902-2.5021-1.0043-1.3916-2.6055-3.8324-2.8895-4.4047-0.14822-0.29864-0.43736-0.7812-0.64254-1.0723-0.20517-0.29112-0.42204-0.66542-0.48192-0.83178s-0.5151-0.91588-1.0116-1.6656c-1.0372-1.5662-4.9804-8.9886-5.5532-10.453-0.2114-0.5404-0.44494-1.0632-0.51899-1.1617s-0.36743-0.74215-0.65196-1.4302c-0.28453-0.68809-0.89073-1.9749-1.3471-2.8596-0.45638-0.88468-1.2098-2.6138-1.6742-3.8426-0.46445-1.2287-0.99738-2.5714-1.1843-2.9838-0.18691-0.41239-0.33984-0.83774-0.33984-0.94524s-0.2731-0.81565-0.60688-1.5736-0.76917-1.9009-0.96752-2.5399c-0.32137-1.0352-0.83929-2.462-1.2651-3.4851-0.08182-0.1966-0.29001-0.84001-0.46264-1.4298s-0.37823-1.2332-0.45688-1.4298c-0.13822-0.34549-1.1277-3.5534-1.4333-4.6468-0.08242-0.2949-0.28367-1.0187-0.44721-1.6085s-0.40064-1.394-0.52688-1.7872c-0.2217-0.69051-0.44805-1.547-1.4171-5.3617-0.24969-0.98299-0.64926-2.5513-0.88792-3.4851-0.23866-0.93383-0.57291-2.3815-0.74278-3.217-0.16987-0.83554-0.46476-2.0017-0.65532-2.5915s-0.4172-1.5549-0.50364-2.1447c-0.45933-3.1338-0.57263-3.7687-0.72256-4.0488-0.09012-0.16853-0.16392-0.58119-0.16392-0.91703s-0.07269-0.84379-0.16153-1.1288c-0.24002-0.76993-0.79013-4.1104-1.3656-8.2927-0.15556-1.1304-0.35171-2.3368-0.4359-2.6809-0.61705-2.5217-0.71821-3.2352-1.0643-7.5064-0.11548-1.4253-0.28245-3.1143-0.37104-3.7532-0.44495-3.2092-0.7117-5.7249-0.89071-8.4-0.10853-1.6219-0.32988-4.5977-0.49188-6.6128-0.29907-3.72-0.42671-19.039-0.23036-27.647 0.09385-4.1141 0.02857-4.345-1.2282-4.345-0.35403 0-0.92465-0.08366-1.268-0.18592-0.3434-0.10225-0.94606-0.25808-1.3393-0.34629-2.0453-0.45884-3.6679-0.87803-4.4681-1.1543-1.6537-0.57098-5.6966-1.5334-6.0159-1.432-0.17943 0.05694-0.36304 0.34896-0.42411 0.67451-0.17464 0.93094-0.18586 11.669-0.01675 16.027 0.08583 2.2117 0.22478 5.8309 0.30876 8.0426 0.08399 2.2117 0.28217 5.2679 0.44041 6.7915 0.15824 1.5236 0.35035 3.8158 0.4269 5.0936 0.26748 4.4651 1.0561 11.326 1.7873 15.549 0.10212 0.58978 0.30068 1.957 0.44124 3.0383 0.62683 4.8218 0.84021 6.2093 1.2643 8.2213 0.24864 1.1796 0.64697 3.2706 0.88519 4.6468 0.23821 1.3762 0.51598 2.864 0.61726 3.3064 0.53743 2.3472 0.77079 3.4327 0.99896 4.6468 0.23685 1.2603 0.60815 2.9224 1.0181 4.5575 0.09858 0.39319 0.29215 0.97901 0.43015 1.3018 0.138 0.32281 0.25091 0.90114 0.25091 1.2852s0.06983 0.74144 0.15517 0.79418c0.08534 0.0528 0.20918 0.50308 0.2752 1.0007 0.06602 0.49766 0.20727 1.1228 0.3139 1.3891 0.10663 0.26637 0.25542 0.64515 0.33066 0.84175 0.21462 0.5608 0.57651 1.8967 0.72624 2.6809 0.20609 1.0793 0.53154 2.2606 0.78786 2.8596 0.12618 0.29489 0.33553 0.85787 0.4652 1.2511 0.12968 0.39319 0.29979 0.79129 0.37802 0.88468 0.07823 0.0934 0.14224 0.36136 0.14224 0.59552 0 0.43554 0.71964 2.7183 1.1758 3.7298 0.13969 0.30976 0.25399 0.68703 0.25399 0.8384 0 0.15136 0.08043 0.32491 0.17872 0.38566 0.0983 0.0607 0.17872 0.26195 0.17872 0.44711 0 0.36817 1.0857 3.7763 1.4965 4.6976 0.31857 0.71447 1.053 2.7557 1.4606 4.0596 0.169 0.54064 0.36658 1.0634 0.43906 1.1617s0.23219 0.50043 0.3549 0.89362c0.12272 0.3932 0.32334 0.95618 0.44583 1.2511 0.19456 0.46841 0.49669 1.2329 0.98882 2.5021 0.19177 0.49456 0.86933 1.9749 1.9455 4.2506 0.50127 1.06 0.9114 1.986 0.9114 2.058 0 0.0719 0.15688 0.42346 0.34863 0.7812 0.19175 0.35778 0.59652 1.3217 0.8995 2.142 0.30298 0.82036 0.67997 1.7329 0.83777 2.0278 0.98715 1.8448 3.0971 6.0709 3.0971 6.2033 0 0.0872 0.2647 0.57694 0.58823 1.0883 0.32353 0.51135 0.94094 1.6133 1.372 2.4489 0.43108 0.83553 1.0511 1.9375 1.3777 2.4489 0.32667 0.51134 0.59395 0.97094 0.59395 1.0213 0 0.1146 1.4989 2.6376 2.1178 3.5648 0.25341 0.37964 0.5441 0.83936 0.64597 1.0216 0.10187 0.18227 0.90146 1.3997 1.7769 2.7055 0.8754 1.3058 2.2354 3.3393 3.0222 4.5188 1.3556 2.0323 1.6621 2.4475 3.1607 4.2812 0.34404 0.42099 0.78639 0.99235 0.98298 1.2697 0.94825 1.3377 1.9399 2.6085 2.8035 3.5927 1.3585 1.5482 2.666 3.0741 3.1838 3.7158 0.47343 0.5867 2.5738 2.8112 4.4092 4.6697 0.60652 0.61418 1.2391 1.3247 1.4057 1.579 0.1666 0.25427 0.36885 0.46229 0.44945 0.46229 0.08061 0 1.1016 0.94501 2.269 2.1 1.87 1.8502 2.7891 2.6903 4.2869 3.9178 0.61396 0.5032 2.1377 1.8563 2.9846 2.6503 0.41937 0.3932 1.0672 0.91596 1.4397 1.1617 0.37249 0.24575 1.0884 0.81336 1.5909 1.2614 1.5861 1.4141 5.9515 4.6365 6.281 4.6365 0.0545 0 0.51782 0.30844 1.0297 0.68542 1.1299 0.83214 4.0599 2.6688 5.0386 3.1583 0.3917 0.19594 0.8132 0.4503 0.93667 0.56525 0.12348 0.11496 0.52683 0.30294 0.89635 0.41775s1.0048 0.35881 1.4117 0.54222c0.40692 0.18342 0.96991 0.38618 1.2511 0.45059 0.28117 0.0644 0.90903 0.30947 1.3952 0.54454 0.48621 0.23508 0.97641 0.4274 1.0893 0.4274 0.11292 0 0.35087 0.16086 0.52878 0.35745 0.34538 0.38165 1.4119 0.49691 1.6114 0.17415 0.0665-0.10752 0.31837 0.0218 0.60934 0.31277 0.94225 0.94228 1.368 1.2641 2.0485 1.5484 0.37567 0.15698 1.2255 0.646 1.8884 1.0868 0.66297 0.44073 1.3583 0.86411 1.5452 0.94084 0.18688 0.0767 0.78212 0.42625 1.3228 0.77675s1.4655 0.82427 2.0553 1.0529 1.5147 0.63648 2.0553 0.90644c1.2912 0.64473 1.67 0.78786 2.949 1.1142 1.3814 0.35245 1.175 0.34982 2.5548 0.0326zm-16.097-7.3896c-0.183-0.18828-0.26935-0.4503-0.20428-0.61988 0.12711-0.33124 0.35639-0.38184 0.52129-0.11502 0.14993 0.24258 0.73447 0.22533 1.1496-0.0339 0.43885-0.27407 0.94704 0.10216 0.86965 0.64382-0.0751 0.52595-1.854 0.62114-2.3363 0.125zm-1.4712-0.73649c-0.0613-0.0992-0.0541-0.36058 0.0159-0.58086 0.12342-0.38819 0.13164-0.38952 0.26706-0.0431 0.26488 0.67767 0.0471 1.1579-0.28296 0.62395zm23.771-16.273c0.78639-0.10573 1.8721-0.30696 2.4128-0.44715 0.54063-0.14021 1.8677-0.45793 2.9489-0.70605 2.5007-0.57385 3.2059-0.78519 4.2-1.2586 0.44234-0.21064 1.3481-0.52488 2.0127-0.6983 0.66466-0.17343 1.2525-0.38656 1.3063-0.47363 0.0538-0.0871 0.21533-0.15832 0.35893-0.15832 0.14361 0 0.56109-0.18932 0.92776-0.42069 0.36666-0.2314 0.86772-0.48322 1.1135-0.55962s0.64788-0.27772 0.89362-0.44737c0.24574-0.16966 0.84894-0.53056 1.3404-0.802 2.1751-1.2013 3.7753-2.137 4.0433-2.3643 0.15955-0.13528 0.70091-0.46391 1.203-0.73028 1.3132-0.69665 3.4649-2.1427 4.5766-3.0758 0.52706-0.44234 1.5027-1.2466 2.1681-1.7872s1.5381-1.3047 1.9392-1.6979c0.40116-0.39319 0.93689-0.84917 1.1905-1.0133 0.9032-0.58447 4.297-3.8968 5.1878-5.0633 0.22521-0.2949 0.86749-1.0187 1.4273-1.6085 1.4077-1.4831 4.3546-4.9771 5.4302-6.4383 2.5799-3.5048 5.8365-8.204 6.2519-9.0213 0.17487-0.34405 0.73819-1.2689 1.2518-2.0553 0.51365-0.78639 1.2295-1.9793 1.5909-2.6509 0.36132-0.67161 0.76856-1.3954 0.905-1.6085 0.5759-0.8994 1.4181-2.4731 2.2637-4.23 0.49678-1.0321 1.213-2.52 1.5915-3.3064 0.37854-0.78638 1.0219-2.1536 1.4297-3.0383 1.3225-2.8689 1.8156-3.9262 1.9741-4.2331 0.30144-0.58365 1.418-3.4344 1.4182-3.6208 7e-5 -0.10376 0.24803-0.71144 0.55102-1.3504 0.6648-1.402 2.3252-6.1067 3.4059-9.6511 0.19482-0.63894 0.42538-1.3226 0.51235-1.5192 0.087-0.19659 0.31673-0.92043 0.51063-1.6085 0.19388-0.68808 0.56425-1.9347 0.82305-2.7702 0.74373-2.4012 0.91799-3.0561 1.9738-7.417 0.54734-2.2609 1.0694-4.3921 1.1602-4.7362 0.0907-0.34404 0.29791-1.2689 0.46041-2.0553 0.16248-0.78639 0.35797-1.5906 0.43439-1.7872 0.0764-0.1966 0.27468-1.0411 0.44057-1.8766 0.16589-0.83554 0.37135-1.8409 0.45657-2.234 0.4541-2.0951 0.55437-2.5848 0.71345-3.4851 0.0955-0.54064 0.25312-1.3449 0.35021-1.7872 0.18194-0.82901 0.62616-3.7851 0.89971-5.9873 0.0855-0.68809 0.23322-1.4924 0.3283-1.7872 0.0951-0.29489 0.26635-1.3002 0.38058-2.234 0.11424-0.93383 0.28343-2.0598 0.37603-2.5021 0.0926-0.44234 0.24625-1.7292 0.34148-2.8596 0.15636-1.856 0.45706-4.6808 0.89419-8.4 0.16734-1.4237 0.77598-8.1913 1.085-12.064 0.3923-4.9165 0.55876-10.21 0.64546-20.526l0.0899-10.696-0.95492 0.08371c-0.52522 0.04607-1.5179 0.21674-2.206 0.37932-1.7006 0.4018-5.4816 1.0422-7.5064 1.2714-0.4915 0.05566-1.2958 0.17584-1.7872 0.26713-1.7772 0.33008-4.6769 0.71054-6.0766 0.7973-0.78638 0.04877-2.5558 0.2047-3.9319 0.34658-7.6356 0.78718-21.801 0.31065-27.972-0.94102-0.93303-0.18924-2.7821-0.55785-4.1092-0.81912-3.2679-0.64343-7.1096-1.6171-8.132-2.061-0.19659-0.08536-0.75957-0.29784-1.2511-0.47217-0.49149-0.17433-1.1751-0.49414-1.5192-0.71069-0.34405-0.21655-0.94724-0.49465-1.3404-0.618-1.1002-0.34511-3.318-1.2181-4.0829-1.6071-0.37792-0.1922-0.765-0.34947-0.8602-0.34947-0.29826 0-4.4089-1.9547-4.7314-2.2499-0.1169-0.10701-0.64202-0.40205-1.1669-0.65565-1.4394-0.69541-3.7402-1.7413-3.8306-1.7413-0.0439 0-0.39838-0.20107-0.78766-0.44681s-0.78405-0.44681-0.87727-0.44681c-0.0932 0-0.63767-0.2722-1.2099-0.60488-0.67322-0.39138-1.5839-0.71485-2.5799-0.91643-1.5394-0.31156-1.5394-0.31156-3.3428 0.25989-0.99186 0.3143-1.9881 0.71187-2.2138 0.88349-0.22571 0.17162-1.1744 0.66801-2.1083 1.1031-0.93383 0.43508-2.1402 1.0367-2.6809 1.3368-1.6469 0.91441-6.9713 3.4784-7.2232 3.4784-0.0516 0-0.53345 0.20107-1.0707 0.44681-0.53726 0.24574-1.0198 0.44681-1.0724 0.44681-0.0525 0-0.52013 0.19005-1.0391 0.42234-0.51898 0.23228-1.5468 0.64506-2.284 0.91729-0.73724 0.27222-1.7649 0.68537-2.2836 0.9181-0.51875 0.23272-1.0358 0.42314-1.149 0.42314s-0.49303 0.0906-0.84405 0.20134c-1.4086 0.44438-2.2643 0.72691-2.6042 0.85985-1.0195 0.39875-3.0687 0.9075-5.4511 1.3533-1.7662 0.33052-2.7923 0.52808-4.6468 0.89468-0.73724 0.14574-1.7828 0.26701-2.3234 0.2695-0.54064 0.0027-1.3047 0.07626-1.6979 0.16396-0.39319 0.0877-1.4387 0.20884-2.3234 0.26919-0.88469 0.06032-2.1715 0.195-2.8596 0.29921-1.4964 0.22663-12.184 0.1091-15.37-0.16903-1.1796-0.10295-2.8283-0.23361-3.6638-0.29035-4.2491-0.28858-7.0273-0.61514-8.3107-0.97689-1.7406-0.49066-6.9446-1.4626-8.0426-1.5022l-0.89362-0.03222-0.14024 1.966c-0.19548 2.7403-0.03728 21.69 0.21187 25.379 0.23172 3.4305 0.76453 9.7128 1.2733 15.013 0.09435 0.98298 0.21486 2.4709 0.26778 3.3064 0.05293 0.83553 0.16759 1.9213 0.25479 2.4128s0.2499 1.6577 0.36154 2.5915c0.23685 1.9812 0.66837 4.6465 0.897 5.5404 0.08799 0.34405 0.21535 1.1483 0.28303 1.7872 0.06768 0.63894 0.23623 1.6845 0.37454 2.3234 0.13832 0.63894 0.3298 1.6736 0.42552 2.2994 0.09572 0.6257 0.22297 1.2168 0.28279 1.3136s0.17354 0.63038 0.25272 1.1858c0.07918 0.55539 0.23449 1.6532 0.34512 2.4396 0.19599 1.3931 0.37148 2.2545 0.9831 4.8256 0.37738 1.5864 1.1471 5.1668 1.2871 5.9873 0.05871 0.34404 0.16693 0.70595 0.24047 0.80425s0.18924 0.54064 0.25711 0.98298c0.21562 1.4054 1.1791 5.1294 1.919 7.4171 0.09537 0.29489 0.32482 1.154 0.50988 1.9091 0.31155 1.2712 1.654 5.5889 2.5184 8.0994 1.0339 3.003 1.4537 4.1262 1.6001 4.2804 0.08862 0.0934 0.16113 0.27215 0.16113 0.39725s0.1914 0.65189 0.42534 1.1706c0.39555 0.87711 0.59071 1.419 1.1764 3.2666 0.24162 0.76219 0.64509 1.7644 0.91825 2.2809 0.0916 0.17318 0.29309 0.69595 0.44775 1.1617 0.15466 0.46576 0.54901 1.4101 0.87633 2.0986 0.32732 0.68845 0.65356 1.4927 0.72499 1.7872 0.07143 0.29452 0.26286 0.73656 0.42538 0.9823s0.54224 0.96958 0.84379 1.6085c2.4987 5.2944 5.7676 11.541 7.0486 13.469 0.3829 0.57641 0.69618 1.0916 0.69618 1.1448s0.20107 0.36041 0.44682 0.6826c0.24574 0.32218 0.44681 0.64389 0.44681 0.7149 0 0.071 0.18522 0.37796 0.4116 0.68214 0.22639 0.30416 0.75962 1.1105 1.185 1.7919s0.8421 1.3248 0.92613 1.4298c0.73556 0.91942 1.0802 1.3979 1.62 2.2494 0.34386 0.54234 0.73986 1.1053 0.88 1.2511 0.20956 0.21795 0.83688 1.006 1.6337 2.0522 1.2097 1.5884 3.8887 4.8309 5.0355 6.0946 0.8118 0.89455 1.5927 1.7792 1.7353 1.966 0.77743 1.0181 6.392 6.251 7.9304 7.3914 0.58979 0.4372 1.1622 0.87917 1.272 0.98213 0.74795 0.70149 1.9522 1.5943 4.1791 3.0984 0.24574 0.16598 0.86047 0.62441 1.3661 1.0187 0.50559 0.3943 1.425 0.99841 2.0432 1.3424 0.61819 0.34405 1.5532 0.882 2.0779 1.1954 0.52464 0.31347 1.1247 0.62414 1.3334 0.6904 0.20876 0.0663 0.92499 0.47329 1.5916 0.90456 0.66665 0.43124 1.2649 0.78407 1.3296 0.78407 0.0986 0 1.6901 0.65578 3.037 1.2514 0.1966 0.087 1.2824 0.48702 2.4128 0.88908 1.1304 0.40204 2.2162 0.80471 2.4128 0.89482 0.1966 0.0901 1.1617 0.32294 2.1447 0.51737 0.98299 0.19445 2.31 0.47957 2.949 0.63362 2.8323 0.68279 3.7096 0.77052 7.9532 0.79528 2.3592 0.0138 4.9328-0.0615 5.7192-0.16721zm-10.703-27.238c-0.15875-0.24229-0.28864-0.51394-0.28864-0.60366 0-0.0897-0.1137-0.25749-0.25268-0.37283-0.13897-0.11533-0.41614-0.55746-0.61594-0.9825-0.19979-0.42504-0.47778-0.88733-0.61776-1.0273s-0.39406-0.52437-0.56463-0.85421c-0.17056-0.32984-0.68267-1.1704-1.138-1.8679-0.45534-0.69748-0.97868-1.5899-1.163-1.983s-0.52086-0.96275-0.74794-1.2657c-0.41019-0.54724-0.89769-1.3678-1.5381-2.589-0.18393-0.35073-0.47766-0.79307-0.65275-0.98298-0.17509-0.18992-0.62981-0.90827-1.0105-1.5964-0.38068-0.68809-0.97838-1.6934-1.3282-2.234-0.85797-1.3259-1.0576-1.6509-1.2075-1.966-0.10917-0.22948-1.8739-3.1331-2.3897-3.9319-0.0952-0.14745-0.30578-0.50936-0.46795-0.80426-0.16216-0.2949-0.51151-0.81767-0.77631-1.1617-0.26481-0.34404-0.91689-1.3896-1.4491-2.3234-0.97053-1.703-3.4295-5.7502-5.2037-8.5646-0.52181-0.82776-0.98031-1.5918-1.0189-1.6979-0.0386-0.10607-0.21596-0.40129-0.39415-0.65604-0.17819-0.25476-0.61194-1.0156-0.96389-1.6909-0.35195-0.67522-0.74871-1.3515-0.88167-1.5028-0.46667-0.53101-2.2703-3.2733-2.7753-4.2197-0.28066-0.52594-0.65877-1.1809-0.84024-1.4556s-0.42737-0.65981-0.54645-0.85598c-0.86065-1.4179-2.9665-4.8016-3.658-5.8779-0.45991-0.71577-1.0546-1.6927-1.3216-2.1708-0.26698-0.47821-0.81558-1.3681-1.2191-1.9776s-1.0554-1.646-1.4486-2.3033c-0.3932-0.65733-0.83554-1.3296-0.98299-1.4938-0.14744-0.16429-0.58086-0.72599-0.96314-1.2482-1.7274-2.3598-2.6775-3.2888-5.4716-5.3498-3.0706-2.265-3.8643-2.8251-4.9011-3.4591-1.1066-0.67658-2.2417-1.6693-5.4929-4.8039-1.0705-1.0321-2.0449-1.9087-2.1652-1.9479-0.29237-0.0952-0.99261-0.67719-2.7867-2.3159-0.82252-0.75131-1.6772-1.4866-1.8993-1.6341-0.22206-0.14744-0.74495-0.65011-1.162-1.117-0.41702-0.46691-0.85193-0.84894-0.96648-0.84894s-0.3508-0.24128-0.525-0.53617-0.39086-0.53617-0.48146-0.53617c-0.15786 0-1.4298-1.2283-2.6066-2.5171-0.30664-0.33582-0.90013-0.92883-1.3189-1.3178-0.70121-0.65133-0.73134-1.1739-0.03455-0.59919 0.16634 0.1372 0.50349 0.33793 0.74924 0.44604 2.5191 1.1083 3.107 1.3975 4.7087 2.3163 0.57466 0.32964 1.1391 0.59935 1.2543 0.59935s0.48948 0.18774 0.83177 0.4172 1.0446 0.56704 1.5606 0.7502 0.9383 0.38343 0.9383 0.44505c0 0.0616 0.50266 0.33299 1.117 0.60306 0.61437 0.27006 1.2377 0.56619 1.3851 0.65805 0.14745 0.0919 0.38873 0.22096 0.53618 0.28688 0.14744 0.0659 0.56808 0.30668 0.93475 0.53503 0.36666 0.22836 0.82241 0.41519 1.0128 0.41519 0.19035 0 0.37291 0.0738 0.40568 0.16407 0.0328 0.0902 0.58234 0.43615 1.2213 0.7687 0.63894 0.33254 1.7247 0.93458 2.4128 1.3378 0.68809 0.40328 1.446 0.79103 1.6842 0.86168 0.23818 0.0707 0.5985 0.28259 0.8007 0.47096 0.2022 0.18838 0.5703 0.39247 0.818 0.45354 0.24771 0.0611 0.73186 0.28381 1.0759 0.49498 0.34404 0.21116 0.90702 0.52223 1.2511 0.69124 0.68082 0.33446 1.2888 0.69046 1.4298 0.83723 0.0491 0.0511 0.29042 0.1914 0.53617 0.31165s0.68809 0.36168 0.98298 0.5365c2.2914 1.3584 2.7997 1.6504 2.8736 1.6504 0.0463 0 0.59354 0.3217 1.2161 0.71489 0.62258 0.3932 1.1913 0.7149 1.2638 0.7149s0.38523 0.18096 0.69495 0.40213c0.67814 0.48425 1.7102 1.07 2.7961 1.587 0.44103 0.20997 1.204 0.65258 1.6955 0.98357 0.4915 0.33098 0.99523 0.60179 1.1194 0.60179 0.12418 0 0.22671 0.0603 0.22784 0.13405 1e-3 0.0737 0.34294 0.29368 0.75958 0.48878 0.41664 0.19511 0.79774 0.40425 0.84689 0.46476 0.0491 0.0605 0.57191 0.37653 1.1617 0.70228 2.2955 1.2678 2.7016 1.4965 3.3064 1.8618 0.34404 0.20778 0.86681 0.49647 1.1617 0.64153s0.57798 0.31911 0.62909 0.38678c0.0511 0.0677 0.61409 0.38058 1.2511 0.69535 0.63698 0.31478 1.5201 0.82253 1.9624 1.1283 0.89195 0.61661 1.3851 0.92477 1.7872 1.1168 0.14744 0.0704 0.30829 0.17487 0.35744 0.23213 0.0491 0.0573 0.41107 0.26419 0.80426 0.45985 0.3932 0.19565 0.75511 0.39594 0.80426 0.44509 0.11597 0.11597 0.99399 0.61801 1.7872 1.0219 0.34405 0.17519 0.65235 0.37884 0.68511 0.45256 0.0328 0.0737 0.13867 0.13404 0.23533 0.13404 0.0967 0 0.43937 0.20107 0.76156 0.44681 0.32218 0.24575 0.65104 0.44681 0.73078 0.44681 0.0797 0 0.40859 0.20107 0.73078 0.44682 0.32219 0.24574 0.63279 0.44681 0.69022 0.44681 0.0574 0 0.75279 0.40212 1.5452 0.89361 0.79245 0.4915 1.5008 0.89363 1.5742 0.89363s0.3223 0.20106 0.55317 0.44681c0.70922 0.75493 1.008 0.59957 3.3958-1.7657 1.2287-1.2171 3.0762-3.0067 4.1055-3.9769 1.0293-0.97013 2.5976-2.4734 3.4851-3.3406 0.88752-0.8672 2.2853-2.1942 3.1062-2.949 0.82088-0.75472 3.7931-3.6242 6.6048-6.3765 2.8118-2.7524 5.518-5.3906 6.0139-5.8629 1.738-1.6551 5.5671-5.4434 7.5463-7.4659 1.0988-1.1228 3.5524-3.5696 5.4523-5.4373 5.5737-5.4791 13.729-13.804 13.729-14.014 0-0.10688 0.073-0.19433 0.16232-0.19433 0.17068 0 0.87423-0.69846 9.2207-9.1539 5.4825-5.5541 8.844-9.0188 13.226-13.632 1.4745-1.5523 2.8076-2.9518 2.9625-3.1099s0.78313-0.85045 1.3961-1.5385c1.7044-1.9134 1.9926-2.1957 3.1478-3.0844 1.1952-0.91946 1.9677-1.6711 2.5021-2.4347 0.1966-0.28089 0.82289-1.075 1.3918-1.7646 0.56886-0.68967 1.1183-1.4108 1.2209-1.6026 0.10262-0.19173 0.2316-0.3036 0.2866-0.24858 0.0847 0.08471-0.53313 1.4495-1.7081 3.7732-0.31683 0.62654-0.3767 0.7523-0.97861 2.0553-0.92861 2.0103-2.813 5.7406-3.2479 6.4295-0.24731 0.39178-0.44966 0.78764-0.44966 0.8797 0 0.0921-0.0699 0.19419-0.15521 0.22696-0.17512 0.0672-1.632 3.0625-1.632 3.3553 0 0.10415-0.0677 0.18937-0.15057 0.18937-0.0828 0-0.3033 0.3016-0.48996 0.67022s-0.42734 0.79085-0.53488 0.9383c-0.10752 0.14745-0.30637 0.54958-0.44186 0.89362s-0.43023 0.89814-0.65497 1.2313c-0.22475 0.33319-0.40862 0.75175-0.40862 0.93013 0 0.17839-0.40213 1.0232-0.89362 1.8773s-0.89362 1.6235-0.89362 1.7096-0.18829 0.45663-0.41841 0.82329c-0.81029 1.291-1.3688 2.3804-1.3688 2.6696 0 0.1608-0.11333 0.41933-0.25184 0.57452-0.13851 0.15518-0.44499 0.64407-0.68107 1.0864-0.23606 0.44235-0.51554 0.96511-0.62106 1.1617s-0.45936 0.92043-0.78632 1.6085c-0.32695 0.68809-0.73439 1.4027-0.90543 1.588-0.17104 0.18531-0.36167 0.56772-0.42361 0.84981-0.0619 0.28209-0.37311 0.89452-0.69144 1.361-0.31832 0.46644-0.82597 1.3463-1.1281 1.9552-0.30213 0.60894-0.71883 1.3452-0.92599 1.6361-0.20716 0.29093-0.37664 0.63084-0.37664 0.75537 0 0.12454-0.11776 0.35655-0.26169 0.51559-0.25993 0.28722-1.1814 1.9592-2.0232 3.6709-0.24169 0.49148-0.52477 1.0545-0.62907 1.2511-0.10431 0.1966-0.50543 0.96064-0.89143 1.6979-1.1469 2.1907-1.2745 2.4025-1.5896 2.6383-0.1657 0.12402-0.48669 0.60657-0.71331 1.0723-0.22662 0.46578-0.6569 1.249-0.95619 1.7405-0.29927 0.49149-0.70211 1.2153-0.89521 1.6085-0.19308 0.3932-0.49179 0.84497-0.66382 1.004-0.17202 0.15898-0.31277 0.40785-0.31277 0.55306 0 0.1452-0.19414 0.48995-0.43146 0.76611-0.23728 0.27617-0.83928 1.3206-1.3377 2.3211-0.49845 1.0004-1.061 1.959-1.2501 2.1301-0.18909 0.17112-0.4469 0.56671-0.57292 0.87907s-0.61592 1.1904-1.0887 1.9511c-0.47276 0.76074-0.85955 1.4262-0.85955 1.4789 0 0.0526-0.32171 0.60508-0.7149 1.2276-0.3932 0.62258-0.7149 1.2238-0.7149 1.336s-0.0804 0.20409-0.17872 0.20409c-0.0983 0-0.17872 0.0858-0.17872 0.19066 0 0.10485-0.18552 0.44666-0.41228 0.75957-0.22675 0.31291-0.56857 0.877-0.75958 1.2535-0.191 0.37652-0.56847 0.93388-0.83879 1.2386-0.27032 0.3047-0.49149 0.61246-0.49149 0.68392 0 0.0714-0.36176 0.68027-0.80391 1.3529-0.44214 0.67265-0.80406 1.332-0.80425 1.4653 0 0.13325-0.20143 0.48123-0.44717 0.77329-0.24575 0.29205-0.44681 0.67708-0.44681 0.85561 0 0.17854-0.10054 0.36367-0.22341 0.41138-0.12287 0.0478-0.45319 0.51878-0.73404 1.0468-0.28083 0.52801-0.65439 1.1209-0.8301 1.3175-0.17572 0.19659-0.46872 0.63895-0.65109 0.98301-0.18237 0.34407-0.54318 0.90706-0.80177 1.2511-0.25862 0.34402-0.66448 0.98741-0.90195 1.4298s-0.87739 1.4879-1.4221 2.3234c-0.54464 0.83554-1.2567 2.0017-1.5822 2.5915-0.32558 0.5898-0.66037 1.0992-0.74396 1.1319-0.0836 0.0328-0.15199 0.16104-0.15199 0.28506s-0.15999 0.37029-0.35555 0.54727-0.6702 0.89317-1.0548 1.5915c-0.38455 0.69836-0.9106 1.511-1.169 1.8059s-0.64696 0.89809-0.86342 1.3404c-0.21645 0.44234-0.65635 1.1203-0.97753 1.5066-0.32119 0.38631-0.58398 0.81137-0.58398 0.94459 0 0.32785-0.42626 0.996-1.3437 2.1062-0.24369 0.2949-0.44318 0.58502-0.44331 0.64472-1.2e-4 0.0597-0.49279 0.86396-1.0948 1.7872-1.1826 1.8137-1.6 2.4703-2.8373 4.4632-0.44234 0.71249-1.0455 1.6675-1.3404 2.1223s-0.61661 0.96007-0.71491 1.1228-0.84223 1.2641-1.6532 2.4473c-0.81096 1.1833-1.4745 2.1968-1.4745 2.2523s-0.33299 0.59966-0.73996 1.2093c-0.40698 0.60959-0.94191 1.4702-1.1888 1.9126-0.24686 0.44234-0.50277 0.84447-0.56871 0.89362-0.21734 0.16204-1.9838 2.9118-2.6542 4.1317-0.2285 0.41579-0.89201 1.4265-1.4745 2.2461-0.58247 0.81958-1.059 1.5629-1.059 1.6519s-0.0609 0.18861-0.13537 0.22138c-0.23886 0.10512-1.264 1.4946-1.5029 2.037-0.12709 0.28862-0.27702 0.56497-0.33316 0.61412-0.0561 0.0492-0.76415 1.1349-1.5734 2.4128-0.80923 1.2779-1.5692 2.4774-1.6888 2.6657-0.41193 0.64825-2.4484 3.59-2.6512 3.8298-0.265 0.31327-1.3944 2.3502-1.5267 2.7535-0.14515 0.44249-0.50682 0.38778-0.84461-0.12775zm66.554 22.165c1.327-0.13651 2.6392-0.33519 2.9159-0.44152 0.27672-0.10632 0.81245-0.19332 1.1905-0.19332s1.1168-0.15211 1.6416-0.33801c0.52482-0.1859 1.7182-0.55306 2.6521-0.81591 0.93384-0.26284 2.2609-0.72345 2.949-1.0236 0.68809-0.30014 1.4119-0.60704 1.6085-0.682 0.1966-0.075 1.0411-0.46041 1.8766-0.85655 2.8996-1.3748 4.2981-2.0031 4.4583-2.0031 0.30217 0 1.2912-0.95008 1.4719-1.4139 0.24772-0.63592 0.59596-7.3918 0.77467-15.029 0.0989-4.2257 0.46169-7.1008 1.0713-8.4894 0.12947-0.2949 0.41423-1.1394 0.63281-1.8766 0.21858-0.73724 0.5875-1.7017 0.81981-2.1433 0.23231-0.44157 0.42238-0.90001 0.42238-1.0188 0-0.11876 0.10528-0.28026 0.23397-0.35886 0.12868-0.0786 0.87262-1.0624 1.6532-2.1863 1.8006-2.5924 4.5299-5.3741 6.374-6.4962 0.28769-0.17506 0.67509-0.45655 0.86086-0.62553 0.40395-0.36742 2.4277-1.4089 4.2822-2.2038 1.1579-0.49632 1.6325-0.59181 3.4851-0.70126 2.1071-0.1245 2.9442-0.31186 3.3682-0.75391 1.3132-1.369 4.4711-6.4946 5.0922-8.2653 0.10345-0.2949 0.32108-1.059 0.48363-1.6979 0.16255-0.63893 0.34253-1.2823 0.39997-1.4298 0.0574-0.14744 0.20294-0.71043 0.32336-1.2511 0.12041-0.54064 0.38644-1.5862 0.59115-2.3234s0.49893-2.2653 0.65383-3.3958 0.34862-2.5379 0.43049-3.1277c0.14161-1.0201 1.116-4.7738 1.6996-6.5474 0.39133-1.1894 0.36992-1.2616-0.66579-2.2439-3.7734-3.5789-8.1852-11.97-9.7068-18.462-0.24336-1.0382-0.0627-3.8752 0.28739-4.5125 0.0937-0.17069 0.17064-0.41196 0.17083-0.53617 0-0.31849 0.99784-2.1817 1.8136-3.3884 0.37848-0.55982 0.68814-1.075 0.68814-1.1448s0.18807-0.37585 0.41792-0.68002c0.22986-0.30417 0.78991-1.3171 1.2446-2.2509s1.1668-2.2206 1.5826-2.8596c1.2448-1.9131 2.4741-3.9468 2.4741-4.093 0-0.0754 0.32086-0.59516 0.71304-1.155 1.3067-1.8654 1.3118-1.8867 0.71877-3.0297-0.73763-1.4217-0.99183-2.2552-1.6008-5.2489-0.29625-1.4563-0.67034-3.1304-0.8313-3.7202-0.16096-0.58978-0.35273-1.3538-0.42613-1.6979-0.65207-3.0558-2.0748-6.4001-2.5293-5.9455-0.15285 0.15285-0.50903 3.6698-0.95505 9.4306-0.23186 2.9947-0.70531 6.6493-1.3324 10.285-0.10943 0.63433-0.28169 1.6761-0.38281 2.315-0.10112 0.63894-0.2966 1.6845-0.43439 2.3234-0.38034 1.7637-0.58 2.93-0.88726 5.183-0.49394 3.6219-0.66462 4.5224-1.1892 6.2752-0.28279 0.94473-0.51414 2.0364-0.51414 2.426s-0.12077 1.5066-0.26836 2.4823c-0.24928 1.648-0.50555 2.7256-1.5907 6.689-0.22877 0.83554-0.58899 2.1626-0.80049 2.949s-0.46381 1.6149-0.56069 1.8411c-0.0969 0.22619-0.30332 1.0305-0.45872 1.7872-0.1554 0.75679-0.38649 1.6172-0.51353 1.9122-0.35069 0.81401-1.7805 5.5237-3.1469 10.366-0.82683 2.93-2.1575 6.8251-2.9002 8.4894-0.24126 0.54065-0.53889 1.3047-0.66139 1.6979-0.1225 0.39319-0.5425 1.5192-0.93334 2.5021-0.39083 0.98298-0.83446 2.109-0.98582 2.5021s-0.37589 0.95617-0.49898 1.2511c-0.12307 0.2949-0.52062 1.3002-0.88347 2.234-0.36282 0.93383-0.97029 2.3413-1.3499 3.1277-0.3796 0.78639-0.86281 1.8319-1.0738 2.3234-0.21099 0.49149-0.57339 1.2958-0.80534 1.7872-0.23196 0.49149-0.75736 1.6174-1.1676 2.5021-0.97311 2.0987-1.3938 2.9774-1.583 3.3064-0.0848 0.14745-0.41316 0.79086-0.72973 1.4298-0.60959 1.2304-2.503 4.4959-2.6943 4.6468-0.0623 0.0492-0.4349 0.65235-0.82798 1.3404-0.39308 0.68808-1.0479 1.8221-1.4552 2.52-0.40728 0.69792-0.74049 1.3149-0.74049 1.371s-0.40213 0.75035-0.89362 1.5428c-0.49149 0.79246-0.89362 1.4864-0.89362 1.542 0 0.0557-0.33683 0.59996-0.7485 1.2095-1.3315 1.9715-1.3962 2.0747-1.3962 2.2267 0 0.23786-4.442 6.8343-4.9325 7.3247-0.13907 0.13908-0.3307 0.39828-0.42581 0.57602-0.0951 0.17774-0.33277 0.51328-0.52812 0.74564-0.46191 0.54948-2.4516 3.1881-3.1392 4.163-0.29489 0.41814-0.75062 1.0344-1.0127 1.3695-0.2621 0.33505-0.90031 1.1686-1.4182 1.8523-1.2094 1.5966-1.344 1.7504-3.4228 3.9134-0.95867 0.99754-1.8635 1.9411-2.0106 2.0968-0.14718 0.15569-0.26759 0.45728-0.26759 0.67022 0 0.48069 0.963 0.50731 4.6468 0.12835zm-120.52-0.37156c0.13885-0.36185-0.67794-1.5164-1.8067-2.5537-0.50108-0.46051-1.15-1.1589-1.4421-1.552-0.29206-0.39313-0.7723-0.95637-1.0672-1.2517-2.084-2.0868-5.2817-5.9344-7.149-8.6017-0.39319-0.56168-1.0225-1.381-1.3984-1.8208-0.3759-0.43977-0.92239-1.21-1.2144-1.7117-0.81665-1.4029-0.92817-1.5814-1.4077-2.2526-0.97518-1.365-2.6817-3.9724-2.6817-4.0975 0-0.073-0.33386-0.60841-0.74192-1.1899-0.82048-1.1693-1.0783-1.6062-2.2582-3.8275-0.44382-0.83554-1.0763-1.9014-1.4056-2.3685-0.32923-0.46714-0.5986-0.91725-0.5986-1.0002 0-0.22246-0.53985-1.2915-0.95022-1.8817-0.19665-0.28281-0.57226-0.92622-0.8347-1.4298-0.8591-1.6485-1.4836-2.7018-1.638-2.7624-0.08338-0.0328-0.15159-0.14291-0.15159-0.24476s-0.60319-1.4256-1.3404-2.9418c-0.73724-1.5161-1.3404-2.8033-1.3404-2.8604s-0.29186-0.75737-0.64858-1.5561c-1.1643-2.6071-1.2757-2.8723-1.5522-3.6958-0.25756-0.7671-0.74235-1.879-1.905-4.3692-0.27537-0.58979-0.68159-1.5951-0.90273-2.2341-0.22113-0.63893-0.83341-2.2869-1.3606-3.662-0.5272-1.3752-0.95855-2.6028-0.95855-2.728 0-0.12519-0.07653-0.36728-0.17007-0.53797s-0.3028-0.63204-0.46503-1.0252c-0.16223-0.39319-0.36378-0.87575-0.44788-1.0724-0.0841-0.19659-0.36676-1.0813-0.62812-1.966-0.26136-0.88468-0.53652-1.6889-0.61146-1.7872s-0.31022-0.74171-0.52285-1.4298c-0.35737-1.1565-1.5093-4.648-1.9458-5.8979-0.103-0.2949-0.4258-1.4209-0.71735-2.5021-0.29154-1.0813-0.76825-2.8104-1.0594-3.8426-0.2911-1.0321-0.70452-2.5602-0.9187-3.3958-0.21419-0.83553-0.51061-1.9213-0.65872-2.4128-0.52536-1.7433-0.62495-2.1701-1.0427-4.4681-0.23228-1.2779-0.58327-2.8864-0.77997-3.5745-0.1967-0.68809-0.41056-1.5527-0.47526-1.9213s-0.14763-0.67022-0.18428-0.67022-0.18227-0.0444-0.32359-0.0986c-0.2283-0.0876-1.7383 1.9892-1.7383 2.3908 0 0.0698-0.21975 0.44718-0.48834 0.83862-0.58363 0.85058-1.0644 2.0914-1.405 3.626-0.13756 0.61989-0.44087 1.5448-0.67403 2.0553-0.23316 0.51055-0.61119 1.3706-0.84008 1.9112-0.75586 1.7854-2.3213 4.3229-5.1198 8.299-0.61815 0.87827-1.1239 1.7026-1.1239 1.8319s-0.06776 0.23508-0.15058 0.23508-0.29381 0.26597-0.46887 0.59103c-0.36798 0.68331-0.33065 1.2258 0.24836 3.609 0.21493 0.88468 0.46568 2.2117 0.55721 2.949 0.32614 2.6269 0.52208 3.6839 0.96069 5.183 0.24447 0.83554 0.53825 1.8811 0.65285 2.3234s0.27932 0.94391 0.36606 1.1146 0.1577 0.47738 0.1577 0.68154c0 0.37296 1.0951 3.239 1.8746 4.906 1.2341 2.6393 1.6696 3.6178 1.7896 4.0213 0.17469 0.58704 1.4989 2.4346 2.2832 3.1857 0.5306 0.5081 0.81156 0.61959 1.9387 0.76925 4.1207 0.54718 5.6017 0.89891 6.5802 1.5628 0.25142 0.17057 0.81903 0.4652 1.2614 0.65475 0.44234 0.18954 0.91763 0.45368 1.0562 0.58697 0.13857 0.13328 0.58091 0.44833 0.98298 0.7001 0.40207 0.25175 0.77125 0.50604 0.8204 0.56507 0.18342 0.2203 1.5345 1.2192 1.9436 1.437 0.75557 0.40225 3.3623 3.1784 3.7644 4.0091 0.21494 0.444 0.53602 0.99273 0.71351 1.2194 0.7998 1.0214 2.107 4.1018 2.7915 6.5781 0.17661 0.63894 0.36753 1.2421 0.42426 1.3404 0.39544 0.68521 0.8023 5.4998 1.2535 14.834 0.24559 5.0802 0.56689 8.0526 0.90526 8.3748 0.29214 0.27817 4.959 2.6922 6.255 3.2356 0.44234 0.18545 1.3672 0.59721 2.0553 0.91502 1.3048 0.60264 3.2979 1.235 4.8256 1.531 0.49149 0.0952 1.336 0.32529 1.8766 0.51127 0.87552 0.30119 2.2574 0.57914 3.8426 0.77288 1.8122 0.22147 7.433 0.10672 7.533-0.15381zm-32.537-9.7354c0.11315-0.11315 0.12714-0.71814 0.03822-1.6532-0.07713-0.8111-0.22241-3.7669-0.32284-6.5684-0.26229-7.3164-0.5004-9.4298-1.3312-11.816-0.15025-0.43146-0.27435-0.88912-0.27578-1.017-0.0061-0.55171-2.0769-4.3613-2.7969-5.1455-0.42912-0.46739-0.78021-0.90718-0.78021-0.97733 0-0.47151-3.2848-3.5052-4.8283-4.4591-2.4538-1.5165-3.8122-1.901-7.9505-2.25-1.61-0.13577-1.8638 0.26826-1.8723 2.981-0.0024 0.74515-0.17002 2.233-0.37262 3.3064s-0.4397 2.5548-0.52691 3.292c-0.15725 1.3294-0.31248 1.9657-1.0683 4.3788-0.64466 2.0582-0.68968 2.2478-0.9965 4.1971-0.49373 3.1367-0.18528 4.7837 1.3217 7.0574 1.6155 2.4373 3.9276 3.6237 9.1447 4.6924 0.24575 0.0503 1.3315 0.33144 2.4128 0.62468 1.0813 0.29323 2.4485 0.63845 3.0383 0.76719 0.93124 0.20326 2.6352 0.81031 4.4681 1.5918 0.2949 0.12576 0.79489 0.32977 1.1111 0.45339s0.66787 0.33675 0.78146 0.47362c0.24288 0.29264 0.55628 0.32002 0.8059 0.0704zm185.48-2.1572c0.9711-0.28817 1.9362-0.52482 2.1447-0.52587 0.38086-2e-3 1.6019-0.34049 2.4344-0.67496 0.47618-0.1913 1.1274-0.36824 3.1277-0.8497 5.7224-1.3774 9.4053-4.1204 10.008-7.4537 0.11834-0.65455-0.0897-2.1597-0.53732-3.8879-0.16549-0.63894-0.48589-2.0464-0.71199-3.1277-0.22609-1.0813-0.65229-2.8909-0.9471-4.0213-0.29482-1.1304-0.66753-3.0606-0.82826-4.2894s-0.37014-2.577-0.46536-2.9962c-0.0952-0.41916-0.17312-0.95181-0.17312-1.1836 0-0.65819-0.67277-2.0164-1.2069-2.4366-1.782-1.4017-9.4103 2.0044-12.683 5.6631-0.66686 0.74555-1.5129 1.6822-1.8801 2.0814-0.78193 0.8501-1.9815 3.0842-2.2732 4.2337-0.11224 0.44234-0.35872 1.2064-0.54773 1.6979-0.89656 2.3315-1.0458 4.0998-1.0985 13.016-0.0299 5.0505 9e-3 6.2523 0.20353 6.3728 0.14837 0.0917 0.89628-0.0892 1.9544-0.47266 0.94277-0.34166 2.5087-0.85698 3.4798-1.1452zm-216.12-71.522c0.14727-0.12288 0.47615-0.5049 0.73084-0.84894 0.25469-0.34405 0.62822-0.79894 0.83006-1.0109 0.20184-0.21194 0.61907-0.79502 0.92717-1.2958 0.3081-0.50073 0.6287-0.91041 0.71246-0.91041 0.5595 0 5.1788-10.956 5.1788-12.283 0-0.58998-0.75731-2.8797-1.015-3.069-0.08067-0.0592-0.42511-0.69395-0.76543-1.4105s-0.75161-1.4453-0.91398-1.6196c-0.16237-0.17428-0.43999-0.63359-0.61693-1.0207-0.38448-0.8411-2.0303-3.3324-4.0661-6.1549-1.7929-2.4858-1.9912-2.569-2.8652-1.2028-0.66904 1.0459-1.6925 2.2845-3.2977 3.9911-1.9144 2.0353-3.6664 3.9938-3.9374 4.4014-0.14849 0.22332-0.49091 0.64731-0.76094 0.94221-0.27002 0.29489-0.9507 1.2163-1.5126 2.0476l-1.0217 1.5114 0.10938 1.4375c0.4015 5.2767 0.6376 5.7548 5.0261 10.179 0.98349 0.99156 2.7122 2.7679 3.8417 3.9475 2.5242 2.6363 2.836 2.8524 3.4164 2.3681zm242.81-0.80426c1.7445-1.1936 4.0373-3.244 5.8595-5.24 3.7534-4.1112 4.4451-5.2552 4.9985-8.2658 0.44802-2.4375-0.5448-4.8722-3.3293-8.1646-2.8573-3.3784-8.0278-8.7575-8.4179-8.7575-0.15789 0-0.46587 0.26139-0.68441 0.58086-0.21853 0.31947-0.48538 0.66127-0.59302 0.75958-0.3115 0.28449-1.1777 1.4808-1.1883 1.6413-5e-3 0.0803-0.3069 0.56318-0.67022 1.0731-1.3916 1.9533-2.8136 4.0953-3.0032 4.5239-0.85016 1.9217-1.3406 3.0646-1.6106 3.7532-0.5504 1.4037-0.46558 5.7148 0.13186 6.7022 0.0595 0.0983 0.16264 0.40641 0.22925 0.6847 0.0666 0.27829 0.39945 1.1085 0.73961 1.845 0.34017 0.73645 0.6185 1.3826 0.6185 1.436 0 0.0533 0.38202 0.6692 0.84894 1.3686 0.90166 1.3506 1.1023 1.6774 1.5535 2.5296 0.15614 0.2949 0.5323 0.81767 0.83593 1.1617 0.30364 0.34405 0.71361 0.94724 0.91105 1.3404 0.8106 1.6142 1.5256 1.8794 2.7704 1.0277zm-228.63-21.418c-0.0041-1.1953-0.29871-3.5252-0.81172-6.4182-0.49763-2.8063-0.68943-4.0806-0.87424-5.8085-0.59819-5.5928-1.0239-9.0118-1.1853-9.5205-0.18054-0.56883-0.36294-2.2678-1.1557-10.765-0.09171-0.98298-0.19248-2.1894-0.22395-2.6809-0.13868-2.1665-0.36445-4.2169-0.47161-4.2832-0.25743-0.1591-0.59465 0.25611-0.73934 0.91031-0.08418 0.38059-0.27236 1.1745-0.41819 1.7643-0.14583 0.58979-0.3518 1.4228-0.4577 1.8512-0.1059 0.42836-0.46376 1.675-0.79525 2.7702-0.33148 1.0953-0.77236 2.9967-0.97973 4.2254s-0.61742 2.9416-0.91123 3.8065c-0.33824 0.99563-0.5342 1.9337-0.5342 2.5573 0 0.54166-0.07507 1.523-0.16681 2.1808-0.09175 0.65777-0.30278 2.3042-0.46896 3.6587l-0.30214 2.4628 0.77517 1.1117c0.42634 0.61142 0.87865 1.218 1.0051 1.3478 0.12648 0.12989 0.22996 0.31085 0.22996 0.40212 0 0.0913 0.14075 0.30836 0.31277 0.4824 0.40264 0.40736 2.5239 3.2858 3.1913 4.3304 0.28261 0.44235 0.56437 0.84447 0.62612 0.89362 0.06175 0.0492 0.31533 0.49203 0.5635 0.98418 1.0095 2.0019 3.2173 4.9587 3.617 4.844 0.0983-0.0282 0.17711-0.52672 0.17514-1.1078zm55.408-63.702c4.5927-0.23733 8.0274-0.61881 10.366-1.1513 0.68809-0.15668 1.814-0.36012 2.5021-0.45209 1.738-0.2323 3.7966-0.69447 5.9873-1.3442 1.6474-0.4886 2.2039-0.64051 2.9489-0.80502 0.81909-0.18085 4.1914-1.3254 5.0313-1.7076 0.30975-0.14095 0.63645-0.25628 0.72601-0.25628 0.21274 0 1.5801-0.62143 2.3746-1.0792 0.94487-0.5444 7.3033-3.6426 8.2213-4.0059 0.44234-0.17506 1.5683-0.66335 2.5021-1.0851 2.2605-1.0209 5.4381-2.2943 6.4341-2.5784 0.44234-0.12619 1.1604-0.34065 1.5957-0.47657 1.0099-0.31536 2.8486-0.3175 3.7178-0.0043 0.3706 0.13354 1.1162 0.38622 1.6568 0.5615s1.4253 0.51622 1.966 0.75766c1.8248 0.81491 2.0534 0.9058 2.8596 1.1368 0.44235 0.12674 1.0858 0.40171 1.4298 0.61104 0.69825 0.42486 4.3822 2.2307 4.5507 2.2307 0.0593 0 1.1602 0.52277 2.4465 1.1617 1.2863 0.63894 2.4289 1.1617 2.5391 1.1617s0.96531 0.37373 1.9002 0.83051c3.0627 1.4964 7.8111 3.2801 8.732 3.2801 0.20429 0 0.79669 0.15174 1.3164 0.3372 1.2078 0.43096 2.2785 0.69917 3.6259 0.90822 1.6253 0.25219 3.7241 0.67097 4.8705 0.97185 0.56506 0.1483 2.4348 0.40003 4.155 0.55942 1.7202 0.15938 3.7711 0.35539 4.5575 0.43558 1.8252 0.18613 8.3162 0.11666 13.494-0.14441 3.7769-0.19046 5.2254-0.3309 8.0426-0.77984 1.3066-0.20821 1.26-0.20171 4.2-0.58548 1.1796-0.15398 2.8685-0.40128 3.7532-0.54956 0.88469-0.14828 1.9302-0.31368 2.3234-0.36755 0.39319-0.0539 0.87574-0.16242 1.0723-0.24122 0.48497-0.19439 2.0922-0.53135 3.3958-0.71191 0.58979-0.0817 1.2988-0.23824 1.5755-0.34787 0.27672-0.10963 0.74317-0.19932 1.0366-0.19932 1.8348 0 2.4789-2.005 0.91222-2.8397-0.53138-0.28308-2.9674-1.0777-3.8817-1.2662-0.39319-0.08107-1.3985-0.36248-2.234-0.62536s-2.243-0.66386-3.1277-0.89109c-0.88469-0.22723-2.0509-0.57346-2.5915-0.76941-1.2234-0.44339-3.4586-1.1278-4.2894-1.3133-0.34405-0.07684-1.5504-0.41687-2.6809-0.75562-1.1304-0.33875-2.4977-0.71337-3.0383-0.83249-0.54065-0.11912-1.8275-0.48337-2.8596-0.80945s-2.4798-0.77056-3.217-0.98772c-0.73723-0.21716-1.6317-0.50014-1.9876-0.62885-0.91466-0.33071-4.1872-1.107-5.2507-1.2456-0.4915-0.06403-1.4117-0.27168-2.0448-0.46145-1.1792-0.35343-2.9138-0.75052-4.6573-1.0662-0.54064-0.09788-1.5862-0.28891-2.3234-0.42451-1.3053-0.2401-6.4233-1.13-8.7575-1.5228-0.63894-0.10751-1.966-0.27817-2.949-0.37924-0.98299-0.10107-2.2698-0.25379-2.8596-0.33937s-1.9168-0.24184-2.949-0.34725c-1.0321-0.10541-2.3586-0.27847-2.9476-0.38459-1.8021-0.32463-10.764-0.51408-25.38-0.53653-17.976-0.02761-21.102 0.13767-32.26 1.7056-1.1304 0.15886-2.6183 0.36668-3.3064 0.46183-2.0629 0.28524-3.3552 0.50141-4.1107 0.68766-0.39319 0.09692-1.0768 0.26488-1.5192 0.37322-0.44234 0.10835-1.7528 0.35204-2.9121 0.54153-1.1593 0.1895-2.6874 0.49943-3.3958 0.68874-0.70838 0.18931-1.9314 0.48012-2.7177 0.64624-3.2224 0.68072-5.4208 1.2139-6.4341 1.5606-1.075 0.36776-1.7321 0.53204-4.5575 1.1394-0.83554 0.17962-2.1626 0.5621-2.9489 0.84994-0.78639 0.28785-1.8721 0.58077-2.4128 0.65095-0.54064 0.07017-1.6536 0.42193-2.4733 0.78168-0.81967 0.35975-1.6402 0.65408-1.8234 0.65408s-1.3624 0.3695-2.6203 0.82111c-1.258 0.45161-2.7698 0.92786-3.3596 1.0583-1.1493 0.25426-1.2158 0.27293-4.4681 1.2548-3.0171 0.91083-6.0204 1.8878-6.3894 2.0785-0.95086 0.49131 0.31556 1.6038 2.5974 2.2816 1.8319 0.5442 1.9693 0.57883 2.8984 0.73079 0.49149 0.08038 1.2153 0.22976 1.6085 0.33193s1.1572 0.26461 1.6979 0.36096c1.0371 0.18483 3.4349 0.6372 4.8839 0.92139 0.47442 0.09304 1.1341 0.16918 1.4661 0.16918s0.78823 0.07332 1.014 0.16293c0.2258 0.08962 1.2148 0.29201 2.1978 0.44976 0.98298 0.15776 2.1894 0.36595 2.6809 0.46264 0.49149 0.0967 2.8238 0.25705 5.183 0.35633s4.5307 0.20703 4.8256 0.23944c1.229 0.13507 4.5144 0.1078 7.8639-0.06525zm-46.736-6.4567c0-0.19894-0.3156-0.99889-0.70134-1.7777-0.84902-1.7141-0.8103-1.7503 2.4886-2.3261 1.1638-0.20314 3.3034-0.81026 3.9262-1.114 0.36439-0.17775 0.53068-0.54079 0.95647-2.0881 1.458-5.2984 1.8007-6.3564 2.533-7.8192 0.51843-1.0356 0.83666-1.94 0.91392-2.5975 0.16201-1.3784-0.02402-1.4429-3.7721-1.307-10.889 0.39475-17.98 1.1016-20.02 1.9957-0.29637 0.12989-0.77232 0.32492-1.0577 0.43341-2.9378 1.117-4.2938 4.1244-3.5816 7.9436 0.3152 1.6901 2.1142 3.4675 4.3738 4.3212 0.44234 0.16712 1.2973 0.53942 1.8999 0.82733 0.60258 0.28791 1.3666 0.5938 1.6979 0.67976 0.33125 0.08596 1.6478 0.52503 2.9257 0.97572s2.7074 0.94074 3.1767 1.089c0.46931 0.14826 1.2334 0.43873 1.6979 0.64548 0.84308 0.37524 2.1547 0.67306 2.4084 0.54686 0.07372-0.03668 0.13404-0.22945 0.13404-0.4284zm198.52-0.98052c0.76211-0.24427 2.2704-0.87318 3.3516-1.3976 2.6004-1.2612 3.9694-1.8859 4.1325-1.8859 0.13592 0 1.5008-0.59791 2.0912-0.91613 0.17923-0.09659 0.65024-0.34469 1.0467-0.55133 1.0414-0.54281 3.0812-2.6889 3.5875-3.7744 0.82439-1.7675 0.93244-2.4715 0.50728-3.3049-0.20556-0.40292-0.37373-0.84717-0.37373-0.98723s-0.18097-0.37397-0.40214-0.51981-0.75388-0.59743-1.1838-1.0035c-0.42993-0.40611-0.85095-0.73838-0.93563-0.73838-0.0847 0-0.53717-0.23189-1.0056-0.51532-1.1468-0.69392-4.6978-1.6294-6.1852-1.6294-0.26757 0-0.78549-0.12598-1.151-0.27997-0.76238-0.32122-17.316-0.71265-17.632-0.41694-0.16371 0.15294 0.37861 2.0458 0.86535 3.0203 0.12273 0.24575 0.32971 0.80873 0.45994 1.2511 0.4791 1.6271 1.134 3.4949 1.3475 3.8426 0.19079 0.31083 0.58711 1.8023 0.88715 3.3386 0.11454 0.58654 0.26054 0.73503 2.207 2.2446 1.4939 1.1585 3.2466 2.8292 4.4482 4.2399 0.67892 0.79712 1.4093 0.79412 3.9373-0.01614zm-15.325-5.9559c0-0.43976-0.33695-1.2404-0.7181-1.7063-0.16084-0.1966-0.56248-1.0009-0.89255-1.7872-0.33007-0.78639-0.74293-1.6388-0.91749-1.8943-0.17456-0.25548-0.44721-0.85868-0.6059-1.3404-0.49667-1.5078-3.0192-6.2997-4.3724-8.3059-2.4856-3.6851-4.8542-5.864-7.0596-6.4943-0.58979-0.16855-1.394-0.42984-1.7872-0.58066-1.9456-0.74628-8.5514-0.35042-9.7644 0.58514-0.1343 0.10358-0.80716 0.33008-1.4952 0.50334-0.68809 0.17326-1.5148 0.43273-1.8372 0.5766-0.32239 0.14386-1.006 0.40742-1.5192 0.58569-1.4082 0.48918-4.9718 1.8079-5.5798 2.0648-0.29489 0.1246-1.212 0.48337-2.038 0.79728-0.82599 0.31391-1.9117 0.77055-2.4128 1.0148-0.50102 0.24421-1.3533 0.60084-1.8939 0.79251-0.54063 0.19167-1.184 0.49146-1.4298 0.66621-0.24575 0.17474-0.80873 0.46347-1.2511 0.64162-2.9571 1.1909-3.0504 1.7229-0.30113 1.7172 0.60797-0.0013 1.6684 0.11589 2.3565 0.26033 0.68808 0.14444 1.8543 0.35591 2.5915 0.46994 1.322 0.20448 1.6346 0.27586 3.5745 0.81647 0.54064 0.15066 1.747 0.42196 2.6809 0.60289 0.93384 0.18092 2.1804 0.46144 2.7702 0.62337s1.3538 0.36121 1.6979 0.44284c0.34404 0.08163 1.2076 0.31687 1.919 0.52277 0.71143 0.20589 1.4928 0.37435 1.7365 0.37435 0.24365 0 0.70712 0.11291 1.0299 0.25091 0.62769 0.26834 1.2843 0.45251 3.2678 0.9166 0.68809 0.161 1.3995 0.37178 1.5809 0.46842 0.48501 0.25833 4.58 1.5811 4.8947 1.5811 0.14815 0 0.883 0.19907 1.633 0.44238 2.3495 0.76216 4.9026 1.5094 5.8318 1.7068 0.98537 0.20933 1.8628 0.47242 2.6809 0.80389 0.29489 0.11948 1.1394 0.4475 1.8766 0.72895 0.73724 0.28144 1.4988 0.65614 1.6923 0.83266 0.70003 0.63853 2.0609 0.84938 2.0609 0.31931zm-168.72-1.0256c0.54064-0.15164 1.4253-0.43085 1.966-0.62045 0.54064-0.1896 1.7872-0.59127 2.7702-0.8926 0.98298-0.30132 2.2698-0.73123 2.8596-0.95535 0.97274-0.36963 2.1109-0.71358 3.8426-1.1612 1.3399-0.34634 2.8764-0.80173 5.4511-1.6156 2.3893-0.75525 4.0422-1.2378 6.9702-2.0348 1.5814-0.43047 6.5318-1.515 9.1149-1.9969 0.78638-0.14671 1.8116-0.33865 2.2782-0.42654 0.46666-0.08789 0.93015-0.21028 1.03-0.27199 0.0998-0.06171 0.83552-0.16712 1.6348-0.23425 1.9682-0.1653 2.1676-0.45639 1.0442-1.5249-1.0237-0.97362-1.5666-1.6144-2.2195-2.6196-0.68384-1.0528-1.5489-1.9648-1.8636-1.9648-0.2259 0-2.6758-0.91538-4.0488-1.5128-0.2949-0.12831-0.85788-0.33534-1.2511-0.46007-0.3932-0.12472-0.95618-0.32752-1.2511-0.45066-0.2949-0.12314-0.9481-0.34466-1.4516-0.49226-0.50346-0.1476-1.1585-0.3941-1.4557-0.54778-0.53983-0.27916-1.3855-0.52284-2.9013-0.83603-0.44234-0.09139-0.96511-0.24185-1.1617-0.33435-1.1621-0.54678-6.0621-0.74094-7.6851-0.30454-1.5132 0.40688-3.5346 1.3522-4.3787 2.0477-0.44234 0.36447-1.108 0.88822-1.4792 1.1639-1.2462 0.92543-4.4187 4.7589-4.4187 5.3393 0 0.08692-0.26599 0.5764-0.5911 1.0877-0.49109 0.77242-2.4472 4.9293-2.4472 5.2005 0 0.12153-1.1746 2.6522-2.0731 4.4663-1.2754 2.5753-1.1233 2.7484 1.7156 1.9521zm51.473-12.659c1.0321-0.14228 3.2841-0.38392 5.0043-0.53697 1.7202-0.15306 3.4896-0.35298 3.9319-0.44427 0.44234-0.09129 2.0911-0.21161 3.6638-0.26737 1.5728-0.05577 3.1331-0.14447 3.4674-0.19712l0.60783-0.09572-0.21928-4.5843 1.0349-2.0439c0.56918-1.1242 1.1493-2.2056 1.289-2.4033 0.63488-0.89751 2.8459-3.1863 3.7055-3.8359 0.76933-0.58136 1.0621-0.96495 1.5448-2.0243 0.3711-0.81432 0.8049-1.4617 1.1508-1.7175 0.77508-0.57304 0.7022-0.84947-0.47314-1.7948-2.1948-1.7652-5.4254-3.5464-7.2606-4.0031-1.2109-0.30135-1.4123-0.2975-3.6924 0.07065-1.0329 0.16677-5.8324 1.7169-6.1615 1.99-0.10408 0.08638-0.66892 0.40359-1.2552 0.70491s-1.5485 0.89016-2.1383 1.3085c-1.9093 1.3544-6.6924 4.9733-6.7972 5.1428-0.25527 0.41304-3.6205 2.5816-5.2916 3.4098-4.0252 1.9951-6.0455 2.92-7.9284 3.6296-1.5545 0.58587-1.9772 0.81836-2.0198 1.1109-0.0611 0.41985 0.7595 1.4916 1.1421 1.4916 0.13871 0 0.2522 0.06821 0.2522 0.15158 0 0.132 0.53462 0.39583 1.8766 0.92606 0.19659 0.07768 0.73289 0.31332 1.1918 0.52364 0.45887 0.21032 1.1385 0.43178 1.5103 0.49211 0.37182 0.06033 0.88106 0.2167 1.1317 0.34748 0.25059 0.13078 0.63184 0.23828 0.84721 0.23888 0.21537 5.36e-4 0.44128 0.08153 0.50204 0.17982 0.0607 0.0983 0.2796 0.17872 0.48633 0.17872 0.60927 0 2.4829 0.57787 3.803 1.1729 0.29489 0.13293 1.0178 0.36313 1.6066 0.51155 0.58872 0.14842 1.0981 0.3529 1.1319 0.45439 0.0759 0.22786 0.0634 0.22833 2.3551-0.08758zm66.047-0.53031c0.73269-0.34303 1.3322-0.69258 1.3322-0.77677 0-0.25448 6.5374-3.4251 7.0621-3.4251 0.13447 0 0.29037-0.07424 0.34645-0.16497 0.0561-0.09074 0.33887-0.21701 0.62842-0.2806 0.28955-0.0636 0.83692-0.26563 1.2164-0.44896 0.37946-0.18334 0.92579-0.38497 1.214-0.44808 0.28826-0.06311 0.96647-0.31823 1.5071-0.56693 3.1094-1.4304 3.2225-1.5601 1.5132-1.7352-0.64933-0.06652-1.3157-0.18991-1.4809-0.27419-0.45105-0.23014-2.3573-0.54916-3.2814-0.54916-2.3879 0-8.9123-3.1982-11.406-5.5912-0.24574-0.2358-0.76851-0.6622-1.1617-0.94755-0.3932-0.28534-0.75512-0.5684-0.80427-0.629-0.16366-0.2018-4.1825-3.0663-5.3802-3.8348-1.7362-1.1141-3.2802-1.8378-4.7757-2.2386-0.7295-0.19549-1.5674-0.48008-1.862-0.63241-1.6337-0.84481-5.5171-1.2273-7.134-0.70261-2.4154 0.7838-6.4734 3.3786-6.9624 4.4519-0.31943 0.70109 0.36913 1.8778 2.172 3.7118 2.6346 2.6802 5.8911 7.4144 5.8911 8.5644 0 0.10215 0.14909 0.48412 0.33132 0.84882 0.18222 0.3647 0.47488 1.4674 0.65034 2.4503 0.49265 2.7599 0.0636 2.529 4.9511 2.6645 2.4696 0.06846 4.7472 0.22567 5.5949 0.38619 1.142 0.21624 4.0927 0.4939 8.1849 0.77023 0.17658 0.01192 0.92052-0.25899 1.6532-0.60202zm-26.18-1.1698c0.45962-0.24598 0.43812-0.5411-0.16239-2.2292-0.93553-2.63-2.4977-5.3467-3.96-6.8869-0.34404-0.36235-1.1081-1.2389-1.6979-1.9478-1.9251-2.3141-2.2728-2.6916-2.4782-2.6903-0.11144 7.43e-4 -0.76559 0.53448-1.4537 1.1862-0.68809 0.65168-1.7537 1.5833-2.3681 2.0704-0.61437 0.48702-1.117 0.94085-1.117 1.0085s-0.48633 0.64342-1.0807 1.2794c-2.672 2.859-4.3632 7.0359-3.2852 8.1139 0.34237 0.34237 16.973 0.43292 17.603 0.09584z" fill="url(#MyGradient)" stroke-width=".17872" style="fill:url(#MyGradient)"/>
 <defs>
  <linearGradient id="MyGradient" x1="22.165" x2="298.05" y1="273.03" y2="57.841" gradientTransform="matrix(1.0102 0 0 .98989 -11.797 -12.274)" gradientUnits="userSpaceOnUse">
   <stop style="stop-color:#8bff00" offset=".05"/>
   <stop style="stop-color:#00d492" offset=".95"/>
  </linearGradient>
 </defs>
</svg>
